<?xml version="1.0" encoding="UTF-8" standalone="no"?>
<!DOCTYPE svg PUBLIC "-//W3C//DTD SVG 1.1//EN" "http://www.w3.org/Graphics/SVG/1.1/DTD/svg11.dtd">
<svg width="100%" height="100%" viewBox="0 0 4096 4096" version="1.1" xmlns="http://www.w3.org/2000/svg" xmlns:xlink="http://www.w3.org/1999/xlink" xml:space="preserve" xmlns:serif="http://www.serif.com/" style="fill-rule:evenodd;clip-rule:evenodd;stroke-linejoin:round;stroke-miterlimit:2;">
    <g id="Cyan" transform="matrix(2.12241,0,0,2.12241,-1559.41,-851.379)">
        <path d="M1696.6,1969.4L1696.6,2153.86L1538.39,2062.51L1538.39,1878.05L1696.6,1969.4ZM1015.9,1187.28L1164.3,1272.96C1164.3,1272.96 1164.3,1474.07 1164.3,1474.07L1338.46,1574.62L1338.46,1775.73L1512.63,1876.28C1512.63,1876.28 1512.63,2047.64 1512.63,2047.64C1512.63,2047.64 1015.9,1760.85 1015.9,1760.85L1015.9,1187.28ZM1873.84,1667.74L1873.84,1853.97C1873.84,1853.97 1712.56,1760.85 1712.56,1760.85L1712.56,1574.62L1873.84,1667.74ZM1522.44,1667.74L1522.44,1852.2L1364.23,1760.85L1364.23,1576.39L1522.44,1667.74ZM2048,1366.08L2048,1552.31C2048,1552.31 1886.72,1459.19 1886.72,1459.19L1886.72,1272.96L2048,1366.08ZM1348.28,1366.08L1348.28,1550.54L1190.06,1459.19L1190.06,1274.73L1348.28,1366.08ZM2222.16,1064.42L2222.16,1250.65L2060.88,1157.53L2060.88,971.302L2222.16,1064.42ZM1177.18,1064.42L1177.18,1250.65L1015.9,1157.53L1015.9,971.302L1177.18,1064.42ZM1525.51,1064.42L1525.51,1250.65L1364.23,1157.53L1364.23,971.302L1525.51,1064.42ZM1873.84,1064.42L1873.84,1250.65L1712.56,1157.53L1712.56,971.302L1873.84,1064.42Z" style="fill:rgb(0,176,225);"/>
    </g>
    <g id="Magenta" transform="matrix(2.12241,0,0,2.12241,-1559.41,-851.379)">
        <path d="M1859.42,1875.4L1860.95,1876.28C1860.95,1907.89 1860.95,2030.9 1860.95,2062.51C1860.95,2062.51 1730.44,2137.87 1699.67,2155.63L1696.6,2153.86L1696.6,1969.4L1859.42,1875.4ZM2228.61,1477.79L2235.05,1474.07L2235.05,1272.96C2235.05,1272.96 2383.45,1187.28 2383.45,1187.28C2383.45,1187.28 2383.45,1567.18 2383.45,1567.18C2383.45,1567.18 2383.45,1724.49 2383.45,1760.85C2383.45,1760.85 2215.72,1857.69 2215.72,1857.69C2215.72,1857.69 1886.72,2047.64 1886.72,2047.64C1886.72,2047.64 1886.72,1910.09 1886.72,1876.28L2060.88,1775.73L2060.88,1574.62C2060.88,1574.62 2228.61,1477.79 2228.61,1477.79ZM1685.26,1573.74L1686.79,1574.62C1686.79,1574.62 1686.79,1760.85 1686.79,1760.85C1686.79,1760.85 1525.51,1853.97 1525.51,1853.97L1522.44,1852.2L1522.44,1667.74L1685.26,1573.74ZM2035.12,1760.85L1873.84,1853.97L1873.84,1667.74L2035.12,1574.62L2035.12,1760.85ZM2209.28,1272.96C2209.28,1272.96 2209.28,1423.67 2209.28,1459.19L2048,1552.31L2048,1366.08L2209.28,1272.96ZM1511.09,1272.08L1512.63,1272.96C1512.63,1272.96 1512.63,1423.67 1512.63,1459.19C1512.63,1459.19 1351.35,1552.31 1351.35,1552.31L1348.28,1550.54L1348.28,1366.08L1511.09,1272.08ZM2383.45,971.302L2383.45,1157.53L2222.16,1250.65L2222.16,1064.42L2383.45,971.302ZM1338.46,971.302L1338.46,1157.53L1177.18,1250.65L1177.18,1064.42L1338.46,971.302ZM1686.79,971.302L1686.79,1157.53L1525.51,1250.65L1525.51,1064.42L1686.79,971.302ZM2035.12,971.302L2035.12,1157.53L1873.84,1250.65L1873.84,1064.42L2035.12,971.302Z" style="fill:rgb(255,0,169);"/>
    </g>
    <g id="Yellow" transform="matrix(2.12241,0,0,2.12241,-1559.41,-851.379)">
        <path d="M1859.42,1875.4L1696.6,1969.4L1538.39,1878.05L1538.39,1876.28L1699.67,1783.17L1859.42,1875.4ZM1685.26,1573.74L1522.44,1667.74L1364.23,1576.39L1364.23,1574.62L1525.51,1481.51L1685.26,1573.74ZM1712.56,1574.62L1873.84,1481.51L2035.12,1574.62L1873.84,1667.74L1712.56,1574.62ZM2209.28,1272.96L2048,1366.08L1886.72,1272.96C1886.72,1272.96 2048,1179.85 2048,1179.85L2209.28,1272.96ZM1511.09,1272.08L1348.28,1366.08L1190.06,1274.73L1190.06,1272.96L1351.35,1179.85L1511.09,1272.08ZM1364.23,971.302L1525.51,878.185L1686.79,971.302L1525.51,1064.42L1364.23,971.302ZM1015.9,971.302L1177.18,878.185L1338.46,971.302L1177.18,1064.42L1015.9,971.302ZM1712.56,971.302L1873.84,878.185L2035.12,971.302L1873.84,1064.42L1712.56,971.302ZM2060.88,971.302L2222.16,878.185L2383.45,971.302L2222.16,1064.42L2060.88,971.302ZM1202.95,863.311C1202.95,863.311 1641.11,610.336 1699.67,576.525C1699.67,576.525 2196.4,863.311 2196.4,863.311C2196.4,863.311 2077.28,932.085 2048,948.989C2048,948.989 1873.84,848.436 1873.84,848.436L1699.67,948.989C1699.67,948.989 1525.51,848.436 1525.51,848.436L1351.35,948.989L1202.95,863.311Z" style="fill:rgb(252,255,0);"/>
    </g>
    <g id="White-Border" serif:id="White Border" transform="matrix(2.12241,0,0,2.12241,-1559.41,-851.379)">
        <path d="M2471.89,920.237L1699.67,474.396L927.454,920.237L927.454,1811.92L1699.67,2257.76L2471.89,1811.92L2471.89,920.237ZM1699.67,528.587L974.385,947.332L974.385,1784.82L1699.67,2203.57L2424.96,1784.82L2424.96,947.332L1699.67,528.587Z" style="fill:white;"/>
    </g>
    <g id="Black-Outlines" serif:id="Black Outlines" transform="matrix(2.12241,0,0,2.12241,-1559.41,-851.379)">
        <path d="M1699.67,528.587L974.385,947.332L974.385,1784.82L1699.67,2203.57L2424.96,1784.82L2424.96,947.332L1699.67,528.587ZM1699.67,1783.17L1860.95,1876.28C1860.95,1907.89 1860.95,2030.9 1860.95,2062.51C1860.95,2062.51 1730.44,2137.87 1699.67,2155.63C1699.67,2155.63 1569.16,2080.28 1538.39,2062.51C1538.39,2062.51 1538.39,1876.28 1538.39,1876.28L1699.67,1783.17ZM2228.61,1477.79L2235.05,1474.07L2235.05,1272.96C2235.05,1272.96 2383.45,1187.28 2383.45,1187.28C2383.45,1187.28 2383.45,1567.18 2383.45,1567.18C2383.45,1567.18 2383.45,1724.49 2383.45,1760.85C2383.45,1760.85 2215.72,1857.69 2215.72,1857.69C2215.72,1857.69 1886.72,2047.64 1886.72,2047.64C1886.72,2047.64 1886.72,1910.09 1886.72,1876.28L2060.88,1775.73L2060.88,1574.62C2060.88,1574.62 2228.61,1477.79 2228.61,1477.79ZM1015.9,1187.28L1164.3,1272.96C1164.3,1272.96 1164.3,1474.07 1164.3,1474.07L1338.46,1574.62L1338.46,1775.73L1512.63,1876.28C1512.63,1876.28 1512.63,2047.64 1512.63,2047.64C1512.63,2047.64 1015.9,1760.85 1015.9,1760.85L1015.9,1187.28ZM1525.51,1481.51C1525.51,1481.51 1656.02,1556.86 1686.79,1574.62C1686.79,1574.62 1686.79,1760.85 1686.79,1760.85C1686.79,1760.85 1525.51,1853.97 1525.51,1853.97C1498.13,1838.16 1391.6,1776.66 1364.23,1760.85C1364.23,1760.85 1364.23,1574.62 1364.23,1574.62L1525.51,1481.51ZM1873.84,1481.51L2035.12,1574.62C2035.12,1574.62 2035.12,1725.33 2035.12,1760.85C2007.74,1776.66 1901.21,1838.16 1873.84,1853.97C1873.84,1853.97 1712.56,1760.85 1712.56,1760.85C1712.56,1760.85 1712.56,1574.62 1712.56,1574.62L1873.84,1481.51ZM2048,1179.85C2075.37,1195.65 2181.91,1257.16 2209.28,1272.96C2209.28,1272.96 2209.28,1423.67 2209.28,1459.19C2209.28,1459.19 2048,1552.31 2048,1552.31C2048,1552.31 1886.72,1459.19 1886.72,1459.19C1886.72,1459.19 1886.72,1272.96 1886.72,1272.96L2048,1179.85ZM1699.67,1179.85L1860.95,1272.96C1860.95,1304.57 1860.95,1427.59 1860.95,1459.19C1860.95,1459.19 1699.67,1552.31 1699.67,1552.31C1699.67,1552.31 1538.39,1459.19 1538.39,1459.19C1538.39,1459.19 1538.39,1272.96 1538.39,1272.96L1699.67,1179.85ZM1351.35,1179.85C1351.35,1179.85 1481.86,1255.2 1512.63,1272.96C1512.63,1272.96 1512.63,1423.67 1512.63,1459.19C1512.63,1459.19 1351.35,1552.31 1351.35,1552.31C1351.35,1552.31 1190.06,1459.19 1190.06,1459.19C1190.06,1459.19 1190.06,1272.96 1190.06,1272.96L1351.35,1179.85ZM2222.16,878.185C2222.16,878.185 2352.68,953.538 2383.45,971.301C2383.45,971.302 2383.45,1122.01 2383.45,1157.53C2383.45,1157.53 2222.16,1250.65 2222.16,1250.65C2222.16,1250.65 2060.88,1157.53 2060.88,1157.53C2060.88,1157.53 2060.88,971.302 2060.88,971.302L2222.16,878.185ZM1177.18,878.185C1177.18,878.185 1307.7,953.538 1338.46,971.301C1338.46,971.302 1338.46,1122.01 1338.46,1157.53C1338.46,1157.53 1177.18,1250.65 1177.18,1250.65C1177.18,1250.65 1015.9,1157.53 1015.9,1157.53C1015.9,1157.53 1015.9,971.302 1015.9,971.302L1177.18,878.185ZM1525.51,878.185C1525.51,878.185 1656.02,953.538 1686.79,971.301C1686.79,971.302 1686.79,1157.53 1686.79,1157.53C1686.79,1157.53 1525.51,1250.65 1525.51,1250.65C1525.51,1250.65 1364.23,1157.53 1364.23,1157.53C1364.23,1157.53 1364.23,1006.83 1364.23,971.302L1525.51,878.185ZM1873.84,878.185L2035.12,971.301C2035.12,971.302 2035.12,1157.53 2035.12,1157.53C2035.12,1157.53 1904.6,1232.89 1873.84,1250.65C1873.84,1250.65 1743.32,1175.3 1712.56,1157.53C1712.56,1157.53 1712.56,971.302 1712.56,971.302L1873.84,878.185ZM1202.95,863.311C1202.95,863.311 1641.11,610.336 1699.67,576.525C1699.67,576.525 2196.4,863.311 2196.4,863.311C2196.4,863.311 2077.28,932.085 2048,948.989C2048,948.989 1873.84,848.436 1873.84,848.436L1699.67,948.989C1699.67,948.989 1525.51,848.436 1525.51,848.436L1351.35,948.989L1202.95,863.311Z"/>
    </g>
    <path id="Center-White-Hex" serif:id="Center White Hex" d="M2048,1652.74L1705.69,1850.37L1705.69,2245.63L2048,2443.26L2390.31,2245.63L2390.31,1850.37L2048,1652.74Z" style="fill:white;"/>
</svg>